<svg xmlns="http://www.w3.org/2000/svg" width="29.33" height="27.33" viewBox="0 0 44 41"><g><g><path fill="#fff" d="M40.74 41H3.259c-1.8 0-3.26-1.47-3.26-3.28V18.04s8.509 4.403 16.297 6.206v1.994c0 .905.73 1.64 1.63 1.64h8.147c.9 0 1.63-.735 1.63-1.64v-1.994c7.788-1.803 16.296-6.206 16.296-6.206v19.68C44 39.53 42.54 41 40.74 41zM24.444 21.32c.9 0 1.63.734 1.63 1.64v1.64c0 .906-.73 1.64-1.63 1.64h-4.89c-.9 0-1.629-.734-1.629-1.64v-1.64c0-.906.73-1.64 1.63-1.64zm3.259 0c0-.906-.73-1.64-1.63-1.64h-8.148c-.9 0-1.63.734-1.63 1.64v1.469C8.509 20.932 0 16.399 0 16.399V9.84c0-1.811 1.46-3.28 3.26-3.28h9.777V3.28c0-1.81 1.46-3.28 3.26-3.28h11.407c1.8 0 3.26 1.47 3.26 3.28v3.28h9.777c1.8 0 3.26 1.469 3.26 3.28v6.56s-8.51 4.533-16.297 6.39zm0-16.4c0-.906-.73-1.64-1.63-1.64h-8.148c-.9 0-1.63.734-1.63 1.64v1.64h11.408V4.92z"/></g></g></svg>