<svg xmlns="http://www.w3.org/2000/svg" width="22.67" height="22.67" viewBox="0 0 34 34"><g><g><path fill="#fff" d="M26.01 10.058h6.511a16.968 16.968 0 0 1 1.483 6.311h-7.472a43.635 43.635 0 0 0-.522-6.311zm-2.846-8.93c3.735 1.452 6.8 4.2 8.723 7.668h-6.09c-.691-3.533-1.74-6.043-2.633-7.668zM17.71 8.796v-8.81c1.343.06 2.646.272 3.892.621.947 1.59 2.166 4.247 2.936 8.189zM9.424 23.942c-.294-1.85-.499-3.928-.53-6.311h7.554v6.31zm-.012-13.884h7.036v6.311h-7.56a43.6 43.6 0 0 1 .524-6.311zm3.16-9.479a17.03 17.03 0 0 1 3.876-.59v8.807H9.62c.775-3.964 2.003-6.63 2.952-8.217zM2.085 8.796a17.1 17.1 0 0 1 8.936-7.72c-.899 1.624-1.963 4.15-2.661 7.72zm5.54 7.573h-7.63a16.9 16.9 0 0 1 1.459-6.311h6.694a43.639 43.639 0 0 0-.523 6.311zm.538 7.573H1.502C.627 21.999.068 19.882-.015 17.63h7.646c.03 2.383.237 4.46.532 6.31zm.207 1.262c.703 3.606 1.783 6.129 2.687 7.734a17.06 17.06 0 0 1-8.954-7.734zm8.078 0v8.808a17.028 17.028 0 0 1-3.835-.58c-.95-1.557-2.185-4.235-2.967-8.228zm8.065 0c-.778 3.97-2.003 6.638-2.951 8.2-1.233.341-2.526.526-3.852.584v-8.784zm-6.803-7.573h7.553a43.313 43.313 0 0 1-.53 6.31H17.71zm7.56-1.262h-7.56v-6.311h7.035c.296 1.85.493 3.936.525 6.311zm1.257 1.262h7.463c-.083 2.25-.639 4.367-1.508 6.31h-6.487c.295-1.85.501-3.927.532-6.31zm5.35 7.573c-1.916 3.483-4.996 6.232-8.748 7.68.899-1.606 1.964-4.111 2.66-7.68z"/></g></g></svg>