<svg xmlns="http://www.w3.org/2000/svg" width="30" height="26" viewBox="0 0 60 52"><g><g><path fill="#344eff" d="M48.742 51.584v-4.297h-.056c.021-.357.055-.711.055-1.074V22.585c0-10.084-8.304-18.26-18.548-18.26-10.244 0-18.548 8.176-18.548 18.26v23.628c0 .363.033.717.055 1.074h-.055v4.297S.734 51.404.734 39.769c0-6.6 3.508-9.51 6.546-10.795v-6.39C7.28 10.129 17.54.03 30.193.03s22.913 10.098 22.913 22.555v6.389c3.038 1.286 6.546 4.196 6.546 10.795 0 11.636-10.91 11.815-10.91 11.815zm-32.733 0h-2.182v-23.63h2.182zm30.55 0h-2.182v-23.63h2.182z"/></g></g></svg>