<svg xmlns="http://www.w3.org/2000/svg" width="28.5" height="20.5" viewBox="0 0 57 41"><g><g><path fill="#344eff" d="M28.55 3.553C32.583 3.553 37.337 0 39.787 0c14.84 0 23.196 40.865 12.102 40.865-6.915 0-13.003-11.845-23.377-11.845-12.823 0-14.083 11.993-23.448 11.993C-6.03 41.013 2.47 0 17.31 0c2.161 0 7.204 3.553 11.238 3.553zm12.102 7.996c0 .98.774 1.776 1.73 1.776.954 0 1.728-.795 1.728-1.776 0-.982-.774-1.777-1.729-1.777-.955 0-1.729.795-1.729 1.777zm5.187 5.33c0 .981.774 1.777 1.729 1.777.955 0 1.729-.796 1.729-1.777 0-.981-.774-1.777-1.73-1.777-.954 0-1.728.796-1.728 1.777zm-5.187 5.33c0 .981.774 1.777 1.73 1.777.954 0 1.728-.796 1.728-1.777 0-.98-.774-1.777-1.729-1.777-.955 0-1.729.796-1.729 1.777zm-5.295-5.33c0 .981.774 1.777 1.73 1.777.954 0 1.728-.796 1.728-1.777 0-.981-.774-1.777-1.729-1.777-.955 0-1.729.796-1.729 1.777zm-26.69-1.777c0 4.416 3.483 7.995 7.78 7.995 4.297 0 7.78-3.58 7.78-7.995 0-4.416-3.483-7.995-7.78-7.995-4.297 0-7.78 3.58-7.78 7.995zm7.78-4.442c2.387 0 4.322 1.989 4.322 4.442 0 2.453-1.935 4.442-4.322 4.442s-4.322-1.989-4.322-4.442c0-2.453 1.935-4.442 4.322-4.442z"/></g></g></svg>