<svg xmlns="http://www.w3.org/2000/svg" width="16" height="22.67" viewBox="0 0 24 34"><g><g><path fill="#fff" d="M7.44 11.13c-1.256.765-.654 2.485.093 4.168.012.08 3.624 6.344 3.656 6.365 1.867 2.606 2.879 3.805 4.08 3.077l5.08 8.847c-1.439.914-8.608 1.475-16.142-12.02C-2.944 8.76.877 3.11 2.227 2.068zm16.002 20.595c.001.003-2.43 1.478-2.43 1.478l-5.093-8.871 2.43-1.481a1.09 1.09 0 0 1 1.518.4l3.969 6.895-.002.006c.299.525.17 1.231-.387 1.571zM10.534 9.252c-.001.003-2.43 1.476-2.43 1.476L2.897 1.66 5.327.178A1.088 1.088 0 0 1 6.844.58l4.083 7.094-.002.008c.299.52.167 1.225-.39 1.566z"/></g></g></svg>