<svg xmlns="http://www.w3.org/2000/svg" width="17" height="32.5" viewBox="0 0 34 65"><g><g><path fill="#344eff" d="M32.21 23.472h-7.158v-3.611h7.158c.989 0 1.79.808 1.79 1.805 0 .998-.801 1.806-1.79 1.806zm-5.368-16.25c0-2.992-2.403-5.417-5.369-5.417h-8.947c-2.965 0-5.368 2.425-5.368 5.417v10.834h-1.79V7.222C5.368 3.233 8.573 0 12.526 0h8.947c3.954 0 7.158 3.233 7.158 7.222v10.834h-1.79zM8.947 23.472H1.79c-.988 0-1.79-.808-1.79-1.806 0-.997.802-1.805 1.79-1.805h7.158zM17 27.986c-3.46 0-6.263-2.83-6.263-6.32S13.54 15.347 17 15.347s6.263 2.83 6.263 6.32-2.804 6.32-6.263 6.32zm0-9.93c-1.977 0-3.579 1.616-3.579 3.61 0 1.995 1.602 3.612 3.579 3.612 1.976 0 3.579-1.617 3.579-3.612 0-1.994-1.603-3.61-3.58-3.61zm-6.062 7.414c1.264 2.046 3.496 3.419 6.062 3.419 2.565 0 4.798-1.373 6.062-3.42a7.201 7.201 0 0 1 5.57 7.03v18.056a7.194 7.194 0 0 1-5.369 6.967v-9.788c0-3.49-2.804-6.32-6.263-6.32-3.46 0-6.263 2.83-6.263 6.32v9.788a7.194 7.194 0 0 1-5.369-6.967V32.5c0-3.436 2.384-6.3 5.57-7.03zM17 43.333c2.47 0 4.473 2.021 4.473 4.514v12.639C21.473 62.979 19.471 65 17 65c-2.47 0-4.474-2.021-4.474-4.514V47.847c0-2.493 2.003-4.514 4.474-4.514z"/></g></g></svg>